<svg width="185" height="311" viewBox="0 0 185 311" xmlns="http://www.w3.org/2000/svg">
<path d="M107.46 311C83.7414 309.032 60.0437 306.813 36.3044 305.222C30.0517 304.803 26.1543 302.647 23.3614 296.974C20.2481 289.957 16.3834 283.303 11.8356 277.127C-0.336297 262.033 -0.899088 244.866 0.580713 226.758C2.14388 207.665 2.97759 188.488 3.72792 169.354C4.91593 139.019 5.49952 108.642 7.00017 78.3705C7.33364 71.6504 10.1266 64.9721 12.3984 58.5032C13.1695 56.4097 16.1082 53.1648 17.5464 53.416C20.9645 53.9812 25.6123 55.5095 27.0296 58.1473C30.1142 63.8626 33.1363 70.4571 33.2822 76.7585C33.9075 107.051 33.5532 137.365 33.5532 167.993L10.8561 171.322C23.945 173.415 34.1368 177.728 41.0981 164.141C43.0781 160.247 50.4355 159.138 56.188 156.332H44.1411C44.1411 139.396 43.3908 122.836 44.3079 106.088C45.6626 81.4061 48.3304 56.8075 50.1228 32.1251C50.6439 24.777 55.2708 22.0972 61.0233 22.6416C62.953 23.0144 64.7757 23.8148 66.3585 24.9846C67.9414 26.1544 69.2445 27.664 70.1731 29.4036C73.0638 35.6254 74.7272 42.3508 75.0711 49.2081C75.5505 83.2902 75.3003 117.393 75.3003 152.02L98.7687 146.472C97.2473 141.866 94.1626 136.842 94.1001 131.818C93.579 97.6307 94.1001 63.4439 93.4331 29.2361C93.1622 16.5495 101.77 9.8503 108.669 2.02062C112.566 -2.50134 120.507 1.07852 121.174 7.69398C123.017 22.5342 124.102 37.4595 124.426 52.4111C124.697 82.0551 124.05 111.699 123.654 141.343C123.404 160.184 125.259 162.069 143.496 160.959C146.394 160.884 149.241 160.169 151.833 158.865L136.952 154.888C136.952 135.481 136.66 116.347 136.952 97.2329C137.41 73.9114 138.557 50.6107 139.036 27.2891C139.307 16.5285 144.163 11.2948 157.961 12.3415C160.045 20.2759 164.213 29.2361 164.651 38.4056C167.111 85.7815 168.674 133.178 170.529 180.575C170.529 181.894 170.362 183.234 170.112 186.688C148.457 186.688 127.031 187.211 105.647 186.458C96.2885 186.123 90.932 188.551 90.536 198.265C90.14 207.979 84.5543 212.082 75.8422 214.071C59.6686 217.777 43.62 221.943 27.3005 226.841C45.6 226.841 63.9204 227.281 82.1991 226.674C92.3076 226.339 95.163 230.672 93.9125 239.821C92.1826 252.591 90.8278 265.404 88.9311 278.132C88.4934 281.168 86.5343 283.973 84.5543 288.6C87.0971 286.967 89.4939 286.276 90.2859 284.748C92.1617 281.063 92.5578 276.478 94.8713 273.17C100.332 265.362 96.1426 250.603 110.774 249.577C120.528 248.907 130.366 249.451 138.911 249.451V231.238C118.694 240.617 108.002 224.225 96.3718 212.543C93.1621 209.298 95.8925 200.086 95.8925 192.78C121.049 192.78 143.83 192.571 166.756 193.073C169.216 193.073 173.134 197.009 173.717 199.689C177.886 219.368 181.825 239.151 184.951 259.039C185.431 262.18 182.263 266.618 179.658 269.507C168.757 281.168 157.169 292.2 146.456 304.029C146.602 303.966 143.184 311 107.46 311Z" />
</svg>
