<svg width="195" height="204" viewBox="0 0 195 204" xmlns="http://www.w3.org/2000/svg">
<path d="M111.912 201.577C108.566 201.022 105.219 200.233 101.851 199.955C82.1133 198.269 62.3113 197.18 42.6799 194.768C37.9692 194.192 33.1306 190.009 29.507 186.231C25.8834 182.453 24.8603 177.352 21.7056 173.595C2.94809 151.269 4.33355 124.504 6.08141 97.0769C11.1331 105.615 16.2915 114.152 21.258 122.818C34.8998 146.467 34.8785 146.51 61.48 142.219C70.2193 140.811 78.916 139.21 88.9342 137.46C89.8081 144.503 90.5968 151.035 91.4494 157.587C92.1315 162.816 92.8775 168.067 93.5809 173.318L96.4585 172.827C100.722 161.301 104.729 149.733 109.248 138.292C110.164 135.944 112.445 132.465 114.236 132.38C125.341 131.825 136.489 132.102 146.635 132.102C147.317 125.891 148.148 118.549 149.001 110.886C131.949 122.668 121.44 109.456 109.184 99.254C101.276 92.68 99.4853 86.2768 103.961 77.91C105.262 75.4554 108.63 72.5526 111.123 72.51C134.037 72.1044 156.973 72.2752 181.251 72.2752C184.725 90.9939 186.793 110.097 192.122 128.261C197.301 145.891 193.763 158.27 179.631 169.86C168.526 178.974 155.31 189.07 150.578 201.449C150.514 201.513 147.466 206.166 111.912 201.577Z" />
<path d="M67.2567 117.418C66.1057 116.351 62.3115 114.344 60.8621 111.228C51.4194 91.3994 42.0833 71.5068 33.749 51.1873C32.1716 47.3454 33.7489 39.811 36.6478 37.0576C42.8293 31.3161 51.5686 23.3547 57.9632 24.2512C64.3578 25.1476 71.4558 35.5208 73.6087 43.0766C78.6391 60.7068 80.8985 79.1266 84.2664 97.2477C85.8224 106.063 78.0636 117.119 67.2567 117.418Z" />
<path d="M127.963 65.6157H98.7607L98.7607 117.524C96.8636 115.112 92.835 112.295 92.3661 108.987C88.6146 85.5083 84.6286 62.0299 82.8168 38.3167C82.0281 28.1356 82.5184 16.0762 94.114 9.60901C102.896 4.72124 116.857 10.292 119.053 20.153C122.208 34.6028 124.744 49.2449 127.963 65.6157Z" />
<path d="M177.222 65.445C166.117 65.445 156.611 65.8506 147.168 65.1676C145.658 64.8221 144.25 64.1264 143.058 63.1366C141.866 62.1468 140.923 60.8904 140.304 59.4687C136.468 47.3453 133.164 35.0299 130.137 22.6717C128.005 14.3262 137.341 -0.956121 145.996 0.0470474C153.157 0.879463 163.048 7.49608 165.499 13.8993C171.233 29.6512 173.364 46.7477 177.222 65.445Z" />
<path d="M21.791 38.8718L48.6056 118.442L30.0826 126.382C20.107 107.6 10.0036 89.3931 0.731395 70.7384C-2.97747 63.2467 7.93599 45.9153 21.791 38.8718Z" />
</svg>
