<svg width="198" height="312" viewBox="0 0 198 312" xmlns="http://www.w3.org/2000/svg">
<path d="M110.418 311.071C87.3068 308.998 64.182 307.172 41.1028 304.573C37.1369 304.131 33.1905 300.733 29.9149 297.92C27.6682 295.97 26.8672 292.494 24.9461 290.064C6.21708 266.386 1.50227 239.213 5.62448 208.706C10.8994 217.569 15.9398 225.912 20.8434 234.326C34.7535 258.154 34.7274 258.141 61.486 253.202C69.6197 251.701 77.7664 250.408 87.3133 248.784L91.4225 283.508L94.2943 283.358C98.2668 272.513 102.5 261.753 106.114 250.792C107.898 245.373 110.672 242.942 116.533 243.176C126.302 243.56 136.07 243.28 143.624 243.28C144.432 236.783 145.402 228.985 146.229 222.111C133.797 230.675 122.948 228.264 113.929 217.608C111.259 214.45 108.23 211.344 104.759 209.161C96.0787 203.742 98.9766 196.165 102.011 190.051C103.411 187.225 109.624 185.6 113.733 185.503C131.759 184.918 149.83 185.444 167.862 184.801C175.417 184.528 177.859 186.997 179.057 194.385C182.424 215.236 187.112 235.873 190.603 256.711C191.183 260.181 189.392 265.158 186.943 267.835C175.84 280.077 163.727 291.461 152.754 303.806C152.754 303.806 140.114 310.343 110.418 311.071Z" />
<path d="M126.126 151.273H161.643L141.123 142.826C145.968 119.434 150.722 96.1786 155.652 72.9298C159.755 53.6251 164.411 34.4374 168.116 15.0612C169.653 6.99752 173.912 5.0677 181.089 5.96438C187.725 6.7701 197.369 3.14438 197.239 14.7038C197.063 29.733 196.62 44.9117 194.354 59.7329C189.385 92.2215 183.081 124.548 177.585 156.978C176.498 163.365 176.576 169.973 175.99 178.173H94.4831L80.8076 153.677L98.7095 144.963H88.9022C88.4333 144.314 87.5477 143.56 87.3002 142.644C76.846 104.221 66.4374 65.791 56.0743 27.3549C52.3559 13.4822 63.9671 -1.02714 78.3915 0.168435C80.9508 0.382859 84.3697 4.94425 85.2814 8.10214C97.1727 49.3106 108.686 90.6816 120.337 131.981C122.362 139.167 124.622 146.282 126.126 151.273Z" />
<path d="M83.2822 214.054C80.7685 217.913 78.3655 224.736 73.5139 228.115C69.1638 231.156 62.4758 230.85 59.1871 223.306C50.7669 203.989 41.4219 185.074 33.3794 165.613C31.8099 161.76 32.7021 154.359 35.4307 151.76C41.6173 145.912 49.7575 138.258 56.9665 138.427C63.7131 138.583 71.1044 146.62 72.6348 156.62C75.4546 175.035 79.3619 193.294 83.2822 214.054Z" />
<path d="M21.3643 153.118L47.7973 230.116L29.5241 237.803C19.8144 219.609 10.1113 202.065 1.06586 184.216C-2.84145 176.497 8.08598 158.797 21.3643 153.118Z" />
</svg>
